<?xml version="1.0" encoding="UTF-8"?>
<svg id="Layer_1" data-name="Layer 1" xmlns="http://www.w3.org/2000/svg" viewBox="0 0 538.1911 509.4731">
  <defs>
  <style id="flagella-auto-style">
    svg {
      background: transparent;
    }
    [data-gene] {
      fill: #ffffff !important;
    }
    text, tspan {
      fill: #111111 !important;
    }
  </style>
    <style>
      .cls-1 {
        fill: #221f1f;
      }

      .cls-2, .cls-3 {
        fill: #231f20;
      }

      .cls-2, .cls-4, .cls-5, .cls-6 {
        font-family: ArialMT, Arial;
      }

      .cls-2, .cls-7, .cls-8, .cls-5, .cls-6, .cls-9 {
        isolation: isolate;
      }

      .cls-2, .cls-8, .cls-5, .cls-6, .cls-9 {
        font-size: 12px;
      }

      .cls-10 {
        fill: #353f92;
      }

      .cls-10, .cls-11, .cls-12, .cls-13, .cls-14, .cls-15, .cls-16, .cls-17 {
        stroke: #231f20;
      }

      .cls-10, .cls-12, .cls-13, .cls-14, .cls-18, .cls-17 {
        stroke-miterlimit: 10;
      }

      .cls-11 {
        stroke-miterlimit: 10;
        stroke-width: 1px;
      }

      .cls-11, .cls-13, .cls-15, .cls-16 {
        fill: #cad4de;
      }

      .cls-12 {
        fill: #f4cfc4;
      }

      .cls-19 {
        letter-spacing: -.0552em;
      }

      .cls-20 {
        stroke-dasharray: 2 4;
      }

      .cls-20, .cls-21, .cls-22, .cls-18, .cls-17, .cls-23, .cls-24 {
        fill: none;
      }

      .cls-20, .cls-21, .cls-23, .cls-24 {
        stroke-linecap: round;
      }

      .cls-20, .cls-21, .cls-24 {
        stroke: #ed2224;
        stroke-linejoin: round;
        stroke-width: 2px;
      }

      .cls-14 {
        fill: #f4cfc3;
      }

      .cls-8, .cls-5, .cls-9 {
        fill: #010101;
      }

      .cls-8, .cls-25 {
        font-family: Arial-ItalicMT, Arial;
        font-style: italic;
      }

      .cls-21 {
        stroke-dasharray: 2 4;
      }

      .cls-26 {
        letter-spacing: -.0181em;
      }

      .cls-27 {
        letter-spacing: -.0552em;
      }

      .cls-22, .cls-23 {
        stroke: #010101;
      }

      .cls-15 {
        stroke-miterlimit: 10;
        stroke-width: 1px;
      }

      .cls-16 {
        stroke-miterlimit: 10;
        stroke-width: 1px;
      }

      .cls-18 {
        stroke: #221f1f;
      }

      .cls-6 {
        fill: #fff;
      }

      .cls-28 {
        fill: #d3d3d5;
      }

      .cls-23 {
        stroke-dasharray: 1 2;
      }

      .cls-29 {
        letter-spacing: -.0371em;
      }

      .cls-24 {
        stroke-dasharray: 2 4;
      }
    </style>
  </defs>
  <rect data-gene="FliL" id="FliL" class="cls-10" x="461.0494" y="101.4568" width="35.4734" height="17.9818" rx="6.6" ry="6.6"/>
  <rect data-gene="FliA" id="FliA" class="cls-13" x="136.0143" y="454.9682" width="41.7391" height="17.9818" rx="6.6" ry="6.6"/>
  <rect id="rect135" class="cls-28" x="384.522" y="471.0949" width="150.1739" height="24.2297"/>
  <rect id="rect11" class="cls-28" x="0" y="298.1764" width="353.8" height="24"/>
  <path data-gene="FlhA" id="FlhA" class="cls-13" d="M138.4,322.4764l4.6575,13.2894c1.3918,1.9004,10.4975-1.4546,12.5147.0263,2.4402,1.7915,4.3616,9.9247,7.469,10.9969,3.9209,1.3529,7.1644-24.3127,7.1644-24.3127l-14.7056-12.2928-17,12.2928h-.1Z"/>
  <path data-gene="FliG" id="FliG" class="cls-13" d="M278.0685,322.1764h-21.4099l-8.5441,15.5674c1.4744,1.1493,3.3315,1.8326,5.3541,1.8326h24.6c4.8198,0,8.7-3.8802,8.7-8.7s-3.8802-8.7-8.7-8.7h0Z"/>
  <path data-gene="FliF" id="FliF" class="cls-13" d="M255.1611,322.1764c-4.8198,0-10.3927,3.8802-10.3927,8.7,0,1.9424,1.4753,4.1931,2.5431,5.6378l7.8495-14.3378Z"/>
  <path id="path108" class="cls-22" d="M247.2945,325.7038l-7.7598-6.9915"/>
  <rect id="rect9" class="cls-28" x=".6708" y="226.6764" width="353.1292" height="17.4"/>
  <rect id="rect10" class="cls-28" y="193.1764" width="353.8" height="18.8"/>
  <path data-gene="FlgH" id="FlgH" class="cls-10" d="M147.6698,194.1764c-2.874-1.0904-10.4698,0-10.4698,0-5.7,0-10.7,3.1-12.4,7.6l6.7,25c-3.2,8.6,4.5,17.3,15.4,17.3,0,0,7.4347,2.3282,7.1323-9.9724-.2111-8.5865-.3916-32.505-.3958-34.6385-.0103-5.1899-3.0928-4.1986-5.9668-5.2891h0Z"/>
  <g id="text24" class="cls-7">
    <text class="cls-6" transform="translate(146.6 222.0757) rotate(-90)"><tspan x="0" y="0">FlgH</tspan></text>
  </g>
  <g id="text31" class="cls-7">
    <text class="cls-2" transform="translate(118.1 314.6764)"><tspan x="0" y="0">FliF</tspan></text>
  </g>
  <path data-gene="FliG" id="FliG-2" data-name="FliG" class="cls-13" d="M76.4,322.1764h21.41l8.5441,15.5674c-1.4744,1.1493-3.3315,1.8326-5.3541,1.8326h-24.6c-4.8198,0-8.7-3.8802-8.7-8.7s3.8802-8.7,8.7-8.7Z"/>
  <g id="text33" class="cls-7">
    <text class="cls-2" transform="translate(69.9 335.1764)"><tspan x="0" y="0">FliG</tspan></text>
  </g>
  <ellipse data-gene="FliJ" id="FliJ" class="cls-10" cx="177.7" cy="386.0764" rx="10.0645" ry="23.8"/>
  <g id="text38" class="cls-7">
    <text class="cls-2" transform="translate(142.3798 330.3491)"><tspan x="0" y="0">Flh</tspan><tspan class="cls-19" x="16.6699" y="0">A</tspan></text>
  </g>
  <g id="text39" class="cls-7">
    <text class="cls-6" transform="translate(182.3 396.0757) rotate(-90)"><tspan x="0" y="0">FliJ</tspan></text>
  </g>
  <ellipse data-gene="FliI" id="FliI" class="cls-13" cx="177.7" cy="410.3765" rx="15" ry="10.4"/>
  <g id="text40" class="cls-7">
    <text class="cls-2" transform="translate(169.1 414.7764)"><tspan x="0" y="0">FliI</tspan></text>
  </g>
  <path data-gene="FliH" id="FliH" class="cls-13" d="M127.3596,406.7803l3.4173-5.5443c1.215-1.9902,3.9489-2.63,5.9992-1.4927l16.9345,9.1694h8.8849c2.4301,0,4.4045,1.8481,4.4045,4.1227v6.3972c0,2.2746-1.9744,4.1227-4.4045,4.1227h-10.4037c-.3038,0-.5316,0-.8353-.0711-.9872.1422-1.9744,0-2.8857-.4976l-19.5164-10.591c-2.1263-1.1373-2.8098-3.6962-1.5947-5.6154h0Z"/>
  <g id="text41" class="cls-7">
    <text class="cls-2" transform="translate(144.7 419.7764)"><tspan x="0" y="0">FliH</tspan></text>
  </g>
  <g id="text53" class="cls-7">
    <text class="cls-2" transform="translate(141.3073 497.3756)"><tspan x="0" y="0">DN</tspan><tspan class="cls-19" x="17.332" y="0">A</tspan></text>
  </g>
  <g id="text72" class="cls-7">
    <text class="cls-2" transform="translate(312.3 505.5764)"><tspan x="0" y="0">RN</tspan><tspan class="cls-19" x="17.332" y="0">A</tspan></text>
  </g>
  <g id="text76" class="cls-7">
    <text class="cls-6" transform="translate(246.5001 448.6765)"><tspan x="0" y="0">FlhF</tspan></text>
  </g>
  <g>
    <rect data-gene="FlbT" id="FlbT" class="cls-12" x="5.4584" y="467.0485" width="41.7391" height="17.9818" rx="6.6" ry="6.6"/>
    <g id="text80" class="cls-7">
      <text class="cls-2" transform="translate(14.4363 480.2401)"><tspan x="0" y="0">Flb</tspan><tspan class="cls-26" x="16.6699" y="0">T</tspan></text>
    </g>
  </g>
  <g id="text86" class="cls-7">
    <text class="cls-2" transform="translate(503.2719 276.4764)"><tspan x="0" y="0">Flg</tspan><tspan class="cls-26" x="16.6699" y="0">P</tspan></text>
  </g>
  <path data-gene="FliF" id="FliF-2" data-name="FliF" class="cls-13" d="M99.3074,322.1764c4.8198,0,10.3927,3.8802,10.3927,8.7,0,1.9424-1.4753,4.1931-2.5431,5.6378l-7.8495-14.3378Z"/>
  <path id="path102" class="cls-22" d="M107.1739,325.7038l7.7598-6.9915"/>
  <rect data-gene="FlhA" id="FlhA-2" data-name="FlhA" class="cls-16" x="142.9703" y="347.1169" width="15.1" height="25.3" rx="5.8" ry="5.8" transform="translate(-236.4868 311.6616) rotate(-60.2108)"/>
  <rect data-gene="FlhA" id="FlhA-3" data-name="FlhA" class="cls-15" x="191.0065" y="352.2167" width="25.3" height="15.1" rx="5.8" ry="5.8" transform="translate(-151.8243 148.7183) rotate(-29.7892)"/>
  <path id="path109" class="cls-22" d="M145.7599,348.9577l.2173-12.7711"/>
  <path data-gene="FliF" id="FliF-3" data-name="FliF" class="cls-13" d="M136.2054,318.3404c2.1959-3.3773,9.3967-25.2991,14.3501-29.9654,4.9534-4.6663,4.2995-.4038,5.958-2.8706,1.6585-2.4668,1.0865-10.2279,1.0865-10.2279,0,0-.7035-2.637-1.9322-3.8222-.627-.6048-1.3909-1.058-2.2678-1.047-.9931.0124-2.6903.6448-4.4074,1.7124-2.7704,1.7224-5.5926,5.4466-5.5926,8.6568,0,5.2.5,3.3,1.3,4.7h-2.8c-5.5,0-10,4.3-10,9.5s.3,2.5.8,3.6h-10.1c-5.5,0-10,4.3-10,9.5v4.6c0,5.2,4.5,9.5,10,9.5,0,0,5.5956.3633,8.6002,0s2.8092-.4588,5.0051-3.8361Z"/>
  <g id="text2" class="cls-7">
    <text class="cls-2" transform="translate(116.0135 314.3591)"><tspan x="0" y="0">FliF</tspan></text>
  </g>
  <path data-gene="FliF" id="FliF-4" data-name="FliF" class="cls-13" d="M219.3904,318.3404c-2.1959-3.3773-9.3967-25.2991-14.3501-29.9654-4.9534-4.6663-4.2995-.4038-5.958-2.8706s-1.0865-10.2279-1.0865-10.2279c0,0,.7035-2.637,1.9322-3.8222.627-.6048,1.3909-1.058,2.2678-1.047.9931.0124,2.6903.6448,4.4074,1.7124,2.7704,1.7224,5.5926,5.4466,5.5926,8.6568,0,5.2-.5,3.3-1.3,4.7h2.8c5.5,0,10,4.3,10,9.5s-.3,2.5-.8,3.6h10.1c5.5,0,10,4.3,10,9.5v4.6c0,5.2-4.5,9.5-10,9.5,0,0-5.5956.3633-8.6002,0s-2.8093-.4588-5.0051-3.8361h0Z"/>
  <g id="text26" class="cls-7">
    <text class="cls-2" transform="translate(167.4432 307.7768) rotate(-15)"><tspan x="0" y="0">FliR</tspan></text>
  </g>
  <g id="text18" class="cls-7">
    <text class="cls-2" transform="translate(163.1 147.1764)"><tspan x="0" y="0">FlgE</tspan></text>
  </g>
  <g id="FliC">
    <path data-gene="FliC" id="path13" class="cls-13" d="M281.7501,19.4354l-20.2785-10.2709c-4.3015-2.1946-9.6564-.7023-12.2022,3.4236l-5.8817,9.4809c-.4389.7023-.8779,1.4924-1.4046,2.1946.7023.3511,1.4924.6145,2.2824.8779,4.1259,1.0534,8.603.6145,12.5534,2.2824,3.2481,1.3168,6.145,3.8626,6.4084,7.6374.1756,2.2824-.6145,4.4771-1.0534,6.6717s-.0878,4.3893,1.0534,6.3206c1.7557,3.0725,4.8282,4.916,7.9007,6.4084,3.2481-4.3015,6.4084-8.7786,9.3053-13.4312l5.0038-8.0763c2.8969-4.6527,1.229-10.7977-3.687-13.3434v-.1756Z"/>
    <path data-gene="FliC" id="path14" class="cls-13" d="M260.7692,48.0536c-.9656-2.0191-1.229-4.1259-.8779-6.3206.3511-2.3702,1.4924-4.8282,1.0534-7.2862-.7023-4.0382-5.4427-5.7061-9.0419-6.145-3.687-.5267-7.8129-.4389-11.1488-2.2824-7.7251,11.5-16.9427,21.2442-27.3892,28.9693-5.5305,4.0382-10.0954,6.6717-14.9236,9.3931-.5267.2634-1.0534.6145-1.5801.8779l25.2823,30.9884c5.0038-2.8092,11.061-6.4084,18.1717-11.5877,10.9732-8.0763,20.8053-17.7327,29.4961-28.706-3.687-1.8435-7.1107-4.1259-8.9542-7.9885l-.0878.0878Z"/>
  </g>
  <path data-gene="FlgL" id="FlgL" class="cls-11" d="M198.2358,64.896l24.2973,29.7914c2.7405,3.3602,2.2382,8.3058-1.122,11.0463h0c-3.3602,2.7405-8.3058,2.2381-11.0463-1.1221l-24.2973-29.7914c-2.7405-3.3602-2.2382-8.3058,1.122-11.0463h0c3.3602-2.7405,8.3058-2.2381,11.0463,1.1221Z"/>
  <g id="text15" class="cls-7">
    <text class="cls-2" transform="translate(229.1 62.3764)"><tspan x="0" y="0">FliC</tspan></text>
  </g>
  <g id="text16" class="cls-7">
    <text class="cls-2" transform="translate(196.7568 80.0649) rotate(49.9997)"><tspan x="0" y="0">Flg</tspan><tspan class="cls-29" x="16.6699" y="0">L</tspan></text>
  </g>
  <path id="path32" class="cls-23" d="M196.9843,14.9984h57.3739"/>
  <path data-gene="FlhA" id="FlhA-4" data-name="FlhA" class="cls-13" d="M215.7399,322.4764l-4.6575,13.2894c-1.3918,1.9004-10.4975-1.4546-12.5147.0263-2.4402,1.7915-4.3616,9.9247-7.469,10.9969-3.9209,1.3529-7.1644-24.3127-7.1644-24.3127l14.7056-12.2928,17,12.2928h.1Z"/>
  <path id="path38" class="cls-22" d="M208.3801,348.9577l-.2173-12.7711"/>
  <rect id="rect39" class="cls-28" x="384.9976" y="224.6764" width="150.2024" height="17.4"/>
  <rect id="rect40" class="cls-28" x="384.9976" y="191.1764" width="149.6104" height="18.8"/>
  <path data-gene="MotX,MotY" id="MotX_MotY" data-name="MotX/MotY" class="cls-14" d="M438.515,255.2034c-9.6907-4.3545-18.8371-8.9508-28.0923-14.2729-3.811-2.2982-5.9887-7.3784-4.8998-11.1281h0c1.0888-3.7497,5.5531-6.5317,9.7996-5.8059,10.3441,1.6934,20.2526,3.8706,30.3788,6.5317,4.1376,1.2096,5.7709,8.1041,3.811,14.9987h0c-1.9599,6.8946-6.9686,11.37-10.8885,9.6766h-.1089Z"/>
  <g id="text48" class="cls-7">
    <text data-text-gene="MotX,MotY" class="cls-2" transform="translate(409.1789 236.5909) rotate(16.3092)"><tspan x="0" y="0">MotYX</tspan></text>
  </g>
  <rect data-gene="FlgT" id="FlgT" class="cls-14" x="408.1" y="207.0764" width="31.4" height="18" rx="5.8" ry="5.8"/>
  <rect data-gene="FlgP" id="FlgP" class="cls-10" x="438" y="201.2764" width="28.6" height="15.8" rx="5.8" ry="5.8"/>
  <rect data-gene="FlgO" id="FlgO" class="cls-10" x="466.9061" y="199.5264" width="27.2236" height="15.1" rx="5.8" ry="5.8"/>
  <g id="text58" class="cls-7">
    <text class="cls-2" transform="translate(411.9086 219.7764)"><tspan x="0" y="0">Flg</tspan><tspan class="cls-26" x="16.6699" y="0">T</tspan></text>
  </g>
  <g id="text88">
    <text class="cls-6" transform="translate(440.0718 212.8764)"><tspan x="0" y="0">Flg</tspan><tspan class="cls-26" x="16.6699" y="0">P</tspan></text>
  </g>
  <g id="text101">
    <text class="cls-6" transform="translate(467.5162 210.9764)"><tspan x="0" y="0">FlgO</tspan></text>
  </g>
  <g id="text102" class="cls-7">
    <text class="cls-9" transform="translate(249.0218 185.6358)"><tspan class="cls-25" x="0" y="0">E. coli </tspan><tspan class="cls-4" x="36.0117" y="0">and </tspan><tspan class="cls-25" x="59.3672" y="0">S. enterica</tspan></text>
  </g>
  <g id="text103" class="cls-7">
    <text class="cls-5" transform="translate(414.5241 185.6357)"><tspan x="0" y="0">Polar γ-proteobacteria</tspan></text>
  </g>
  <rect id="rect103" class="cls-28" x="385.0855" y="400.3949" width="150.2024" height="17.4"/>
  <rect id="rect104" class="cls-28" x="385.0855" y="366.8949" width="149.6104" height="18.8"/>
  <g id="text122" class="cls-7">
    <text class="cls-2" transform="translate(444.7711 390.2229)"><tspan x="0" y="0">Flg</tspan><tspan class="cls-26" x="16.6699" y="0">P</tspan></text>
  </g>
  <g>
    <rect data-gene="MotE" id="MotE" class="cls-10" x="384.691" y="431.2949" width="29.0363" height="16.8" rx="6.4" ry="6.4"/>
    <g id="text127" class="cls-7">
      <text class="cls-6" transform="translate(385.2049 443.2948)"><tspan x="0" y="0">MotE</tspan></text>
    </g>
  </g>
  <rect data-gene="PflA" id="PflA" class="cls-14" x="409.888" y="442.6949" width="27.5" height="16.8" rx="6.4" ry="6.4"/>
  <g id="text128" class="cls-7">
    <text class="cls-2" transform="translate(412.6223 454.9948)"><tspan x="0" y="0">Pfl</tspan><tspan class="cls-19" x="14.0039" y="0">A</tspan></text>
  </g>
  <rect data-gene="PflB" id="PflB" class="cls-14" x="470.488" y="443.5948" width="27.5" height="16.8" rx="6.4" ry="6.4"/>
  <g id="text130" class="cls-7">
    <text class="cls-2" transform="translate(473.2337 455.8949)"><tspan x="0" y="0">PflB</tspan></text>
  </g>
  <rect id="rect134" class="cls-20" x="381.953" y="363.9957" width="155.2381" height="135.4854"/>
  <g id="text116" class="cls-7">
    <text class="cls-5" transform="translate(435.7183 360.5588)"><tspan x="0" y="0">Campylobacterota</tspan></text>
  </g>
  <rect id="rect135-2" data-name="rect135" class="cls-28" x="384.4341" y="296.1082" width="150.1739" height="24.2297"/>
  <path data-gene="FlhB" id="path104" class="cls-13" d="M177.6138,310.3234h-1.4922c-2.7661,0-4.993,8.8095-4.993,19.7521s2.2269,19.7522,4.993,19.7522h1.4922c2.7661,0,4.993-8.8094,4.993-19.7522s-2.2269-19.7522-4.993-19.7522h0Z"/>
  <g id="FlhB" class="cls-7">
    <text class="cls-2" transform="translate(181.0687 342.4126) rotate(-90)"><tspan x="0" y="0">FlhB</tspan></text>
  </g>
  <path data-gene="FliR" id="FliR" class="cls-13" d="M192.3105,299.3889l-6.1608,12.9364c-.817,1.7154-2.2367,3.0294-3.4447,3.0023l-6.7943.2783c-2.3693.0794-3.0307-3.1255-1.4363-6.4643l8.0274-16.8101c1.5944-3.3388,4.6266-4.7639,5.9508-2.9048l4.0161,5.4873c.7305,1.018.6232,2.8534-.2016,4.565l.0434-.0901Z"/>
  <path data-gene="FliR" id="FliR-2" data-name="FliR" class="cls-13" d="M169.0341,297.9591c-1.9548,1.0175-3.4391,2.8018-3.4391,5.582,0,3.4141,2.2384,6.9957,4.8374,6.1621l16.0991-5.1621c2.599-.8336,4.8389-2.75,4.8389-6.1641,0-2.7805-1.4855-5.6719-3.4406-6.1992l-18.8958,5.7812Z"/>
  <path data-gene="FliP" id="FliP" class="cls-13" d="M187.9299,292.1778c1.9549-1.0175,3.4406-2.8018,3.4406-5.582,0-3.1429-1.8982-6.4255-4.2272-6.2773l-17.3211,5.5c-2.329.9279-4.2272,2.7965-4.2272,5.9395,0,2.7805,1.484,5.6738,3.4391,6.2012l18.8958-5.7812Z"/>
  <path data-gene="FliQ" id="FliQ" class="cls-13" d="M187.1433,280.3185c2.3286-.928,4.2272-2.7989,4.2272-5.9414,0-3.0019-1.7312-6.1317-3.9159-6.2773l-18.8743,6.1133c-1.7261,1.0503-2.9852,2.7676-2.9852,5.3281,0,3.1436,1.8975,6.4271,4.2272,6.2773l17.3211-5.5Z"/>
  <path data-gene="FliE" id="FliE" class="cls-13" d="M187.4545,268.0997l.647-.2109c2.597-.8436,4.8389-2.748,4.8389-6.1621,0-2.9301-1.6514-5.9899-3.7611-6.2656l-21.395,6.7793c-2.1089.9902-3.7595,2.807-3.7595,5.7363,0,3.2896,2.0803,6.7436,4.5553,6.2363l18.8743-6.1133Z"/>
  <path data-gene="FlgB" id="FlgB" class="cls-13" d="M167.7845,250.2403c-2.1089.9902-3.7595,2.807-3.7595,5.7363s1.6503,5.9872,3.7595,6.2637l21.395-6.7793c2.109-.9901,3.7611-2.8049,3.7611-5.7344s-1.6514-5.9899-3.7611-6.2656"/>
  <path data-gene="FlgC" id="FlgC" class="cls-13" d="M189.1795,243.461c2.109-.9901,3.7611-2.8049,3.7611-5.7344s-1.6514-5.9899-3.7611-6.2656l-21.395,6.7793c-2.1089.9902-3.7595,2.807-3.7595,5.7363,0,2.6304,1.3303,5.3638,3.1286,6.0949.2047.0832.4154.1405.6309.1687l21.395-6.7793Z"/>
  <path data-gene="FlgF" id="FlgF" class="cls-13" d="M165.8587,227.5294c-1.1058,1.0481-1.8338,2.5026-1.8338,4.4473,0,2.9297,1.6503,5.9872,3.7595,6.2637l21.395-6.7793c2.109-.9901,3.7611-2.8049,3.7611-5.7344,0-3.3573-2.1684-6.8852-4.7101-6.1992l-22.3716,8.002Z"/>
  <g id="FlgG">
    <path data-gene="FlgG" id="path12" class="cls-13" d="M165.8587,227.5294l-1.7065.6094c-2.5803.9229-4.8374-2.748-4.8374-6.1621,0-2.9335,1.6672-4.6938,3.7733-5.7168-2.106-.236-3.7733-3.3498-3.7733-6.2832s1.6672-4.6938,3.7733-5.7168c-2.106-.236-3.7733-3.3498-3.7733-6.2832s1.6672-4.6938,3.7733-5.7168c-2.106-.236-3.7733-3.3498-3.7733-6.2832,0-1.5369.4729-2.7374,1.2113-3.6934l33.3482-.8418c2.1069.2342,3.7764,3.3508,3.7764,6.2852s-1.6695,4.692-3.7764,5.7148c2.1069.2342,3.7764,3.3508,3.7764,6.2852s-1.6695,4.692-3.7764,5.7148c2.1069.2342,3.7764,3.3508,3.7764,6.2852,0,3.4141-2.2586,5.2393-4.8389,6.1621l-4.5813,1.6387-22.3716,8.002Z"/>
  </g>
  <path data-gene="FlgE" id="FlgE" class="cls-13" d="M193.8743,181.4415c2.1069-1.0229,3.7764-2.7805,3.7764-5.7148,0-.7726-.1192-1.5561-.3281-2.2988v-18.2012c0-2.4-.0779-4.9992-.1564-7.6992-.314-9.7-.9417-25.9012,4.2394-32.7012.785-1.1,1.6482-2.0004,2.4333-2.9004l-22.6093-35.2988-.0782-.0996c-2.7476,2.6-5.5731,5.6984-8.3991,9.3984-15.2295,19.9-14.2092,47.1008-13.6597,63.3008.0785,2.3.1564,4.4.1564,6v21.1992c0,2.0587.4747,4.1038,1.2772,5.8574l33.3482-.8418Z"/>
  <g id="text112" class="cls-7">
    <text class="cls-2" transform="translate(167.9525 261.2564) rotate(-19.0668)"><tspan x="0" y="0">FlgB</tspan></text>
  </g>
  <g id="text119" class="cls-7">
    <text class="cls-2" transform="translate(167.6395 248.7135) rotate(-19.0668)"><tspan x="0" y="0">FlgC</tspan></text>
    <text/>
  </g>
  <g id="text121" class="cls-7">
    <text class="cls-2" transform="translate(168.3296 236.6425) rotate(-19.0673)"><tspan x="0" y="0">FlgF</tspan></text>
  </g>
  <g id="text123" class="cls-7">
    <text class="cls-2" transform="translate(166.8869 208.8967) rotate(-15)"><tspan x="0" y="0">FlgG</tspan></text>
  </g>
  <g id="text26-2" data-name="text26" class="cls-7">
    <text class="cls-2" transform="translate(169.5337 308.7955) rotate(-19.0668)"><tspan x="0" y="0">FliR</tspan></text>
  </g>
  <g id="text12" class="cls-7">
    <text class="cls-2" transform="translate(169.9488 296.3307) rotate(-19.0668)"><tspan x="0" y="0">Fli</tspan><tspan class="cls-26" x="12.6621" y="0">P</tspan></text>
  </g>
  <g id="text5" class="cls-7">
    <text class="cls-2" transform="translate(169.2176 285.1656) rotate(-19.0668)"><tspan x="0" y="0">FliQ</tspan></text>
  </g>
  <g id="text18-2" data-name="text18" class="cls-7">
    <text class="cls-2" transform="translate(166.2808 148.5143)"><tspan x="0" y="0">FlgE</tspan></text>
  </g>
  <path data-gene="FlgK" id="FlgK" class="cls-11" d="M185.777,74.7532l24.2973,29.7914c2.7405,3.3602,2.2382,8.3058-1.122,11.0463h0c-3.3602,2.7405-8.3058,2.2381-11.0463-1.1221l-24.2973-29.7914c-2.7405-3.3602-2.2382-8.3058,1.122-11.0463h0c3.3602-2.7405,8.3058-2.2381,11.0463,1.1221Z"/>
  <g id="text17" class="cls-7">
    <text class="cls-2" transform="translate(183.457 90.365) rotate(49.9997)"><tspan x="0" y="0">FlgK</tspan></text>
  </g>
  <rect data-gene="FliO" id="FliO" class="cls-10" x="150.8" y="283.6764" width="15.1" height="25.3" rx="5.8" ry="5.8"/>
  <g id="FliO-2" data-name="FliO" class="cls-7">
    <text class="cls-6" transform="translate(162.872 306.9937) rotate(-90)"><tspan x="0" y="0">FliO</tspan></text>
  </g>
  <path id="path30" class="cls-23" d="M116.2842,179.3114h55.9961"/>
  <path id="path31" class="cls-23" d="M111.0172,99.1695h73.628"/>
  <path data-gene="FlhB" id="FlhB-2" data-name="FlhB" class="cls-13" d="M175.5678,343.1277h2.6c4.8198,0,8.7,3.8802,8.7,8.7s-3.8802,8.7-8.7,8.7h-2.6c-4.8198,0-8.7-3.8802-8.7-8.7s3.8802-8.7,8.7-8.7Z"/>
  <rect data-gene="FliM" id="FliM" class="cls-13" x="69.7" y="339.9765" width="25.4757" height="16.8" rx="6.4" ry="6.4"/>
  <rect data-gene="FliN" id="FliN" class="cls-13" x="69.7" y="357.3765" width="25.4757" height="16.8" rx="6.4" ry="6.4"/>
  <path data-gene="FliH" id="path41" class="cls-13" d="M228.9007,406.7803l-3.4173-5.5443c-1.215-1.9902-3.9489-2.63-5.9992-1.4927l-16.9345,9.1694h-8.8849c-2.4301,0-4.4045,1.8481-4.4045,4.1227v6.3972c0,2.2746,1.9744,4.1227,4.4045,4.1227h10.4037c.3038,0,.5316,0,.8353-.0711.9872.1422,1.9744,0,2.8857-.4976l19.5164-10.591c2.1263-1.1373,2.8098-3.6962,1.5947-5.6154h0Z"/>
  <g id="FlgN">
    <rect data-gene="FlgN" id="rect7" class="cls-10" x="5.4584" y="362.0803" width="41.7391" height="17.9818" rx="6.6" ry="6.6"/>
    <g id="text60" class="cls-7">
      <text class="cls-6" transform="translate(13.6598 375.2717)"><tspan x="0" y="0">FlgN</tspan></text>
    </g>
  </g>
  <g>
    <rect data-gene="FliS" id="FliS" class="cls-10" x="5.4584" y="388.3224" width="41.7391" height="17.9818" rx="6.6" ry="6.6"/>
    <g id="text60-2" data-name="text60" class="cls-7">
      <text class="cls-6" transform="translate(15.9947 401.5138)"><tspan x="0" y="0">FliS</tspan></text>
    </g>
  </g>
  <g>
    <rect data-gene="FliT" id="FliT" class="cls-10" x="5.4584" y="440.8064" width="41.7391" height="17.9818" rx="6.6" ry="6.6"/>
    <g id="text60-3" data-name="text60" class="cls-7">
      <text class="cls-6" transform="translate(16.3317 453.9979)"><tspan x="0" y="0">Fli</tspan><tspan class="cls-26" x="12.6621" y="0">T</tspan></text>
    </g>
  </g>
  <g>
    <rect data-gene="FlaF" id="FlaF" class="cls-12" x="5.4584" y="414.5644" width="41.7391" height="17.9818" rx="6.6" ry="6.6"/>
    <g id="text80-2" data-name="text80" class="cls-7">
      <text class="cls-2" transform="translate(14.4363 427.756)"><tspan x="0" y="0">FlaF</tspan></text>
    </g>
  </g>
  <rect data-gene="FlhC" id="FlhC" class="cls-12" x="83.8703" y="427.2166" width="41.7391" height="17.9818" rx="6.6" ry="6.6"/>
  <g id="text80-3" data-name="text80" class="cls-7">
    <text class="cls-2" transform="translate(92.1802 440.4082)"><tspan x="0" y="0">FlhC</tspan></text>
  </g>
  <rect data-gene="FlhD" id="FlhD" class="cls-12" x="76.7039" y="446.1914" width="41.7391" height="17.9818" rx="6.6" ry="6.6"/>
  <g id="text80-4" data-name="text80" class="cls-7">
    <text class="cls-2" transform="translate(85.0139 459.383)"><tspan x="0" y="0">FlhD</tspan></text>
  </g>
  <rect data-gene="FlrC" id="FlrC" class="cls-12" x="195.3423" y="461.1767" width="41.7391" height="17.9818" rx="6.6" ry="6.6"/>
  <g id="text80-5" data-name="text80" class="cls-7">
    <text class="cls-2" transform="translate(204.9911 474.3684)"><tspan x="0" y="0">FlrC</tspan></text>
  </g>
  <rect data-gene="FlrA" id="FlrA" class="cls-12" x="215.2398" y="481.1954" width="41.7391" height="17.9818" rx="6.6" ry="6.6"/>
  <g id="text80-6" data-name="text80" class="cls-7">
    <text class="cls-2" transform="translate(225.2197 494.387)"><tspan x="0" y="0">Flr</tspan><tspan class="cls-19" x="13.9922" y="0">A</tspan></text>
  </g>
  <rect data-gene="PilZ" id="PilZ" class="cls-10" x="311.1082" y="371.9252" width="41.7391" height="17.9818" rx="6.6" ry="6.6"/>
  <g id="text60-4" data-name="text60" class="cls-7">
    <text class="cls-6" transform="translate(321.6443 385.1165)"><tspan x="0" y="0">PilZ</tspan></text>
  </g>
  <rect data-gene="CsrA" id="CsrA" class="cls-10" x="289.1382" y="449.6998" width="41.7391" height="17.9818" rx="6.6" ry="6.6"/>
  <g id="text60-5" data-name="text60" class="cls-7">
    <text class="cls-6" transform="translate(296.6746 462.8912)"><tspan x="0" y="0">Csr</tspan><tspan class="cls-19" x="18.6621" y="0">A</tspan></text>
  </g>
  <rect data-gene="FliW" id="FliW" class="cls-10" x="277.0704" y="470.2713" width="41.7391" height="17.9818" rx="6.6" ry="6.6"/>
  <g id="text60-6" data-name="text60" class="cls-7">
    <text class="cls-6" transform="translate(285.9457 483.4627)"><tspan x="0" y="0">FliW</tspan></text>
  </g>
  <rect data-gene="FlhG" id="FlhG" class="cls-10" x="212.3477" y="420.6891" width="41.7391" height="17.9818" rx="6.6" ry="6.6"/>
  <g id="text60-7" data-name="text60" class="cls-7">
    <text class="cls-6" transform="translate(220.2152 433.8805)"><tspan x="0" y="0">FlhG</tspan></text>
  </g>
  <rect data-gene="FlhF" id="FlhF" class="cls-10" x="240.3907" y="439.9189" width="41.7391" height="17.9818" rx="6.6" ry="6.6"/>
  <g id="text60-8" data-name="text60" class="cls-7">
    <text class="cls-6" transform="translate(249.2601 453.1103)"><tspan x="0" y="0">FlhF</tspan></text>
  </g>
  <rect data-gene="FlgM" id="FlgM" class="cls-10" x="148.9661" y="438.4337" width="41.7391" height="17.9818" rx="6.6" ry="6.6"/>
  <g id="text60-9" data-name="text60" class="cls-7">
    <text class="cls-6" transform="translate(156.5026 451.6251)"><tspan x="0" y="0">FlgM</tspan></text>
  </g>
  <rect data-gene="FlgD" id="FlgD" class="cls-10" x="105.9382" y="90.1786" width="41.7391" height="17.9818" rx="6.6" ry="6.6"/>
  <g id="text60-10" data-name="text60" class="cls-7">
    <text class="cls-6" transform="translate(114.1397 103.3699)"><tspan x="0" y="0">FlgD</tspan></text>
  </g>
  <g id="text60-11" data-name="text60" class="cls-7">
    <text class="cls-2" transform="translate(146.5507 468.1596)"><tspan x="0" y="0">Fli</tspan><tspan class="cls-19" x="12.6621" y="0">A</tspan></text>
  </g>
  <rect data-gene="FliK" id="FliK" class="cls-10" x="105.5063" y="132.958" width="41.7391" height="17.9818" rx="6.6" ry="6.6"/>
  <g id="text60-12" data-name="text60" class="cls-7">
    <text class="cls-6" transform="translate(116.0428 146.1494)"><tspan x="0" y="0">FliK</tspan></text>
  </g>
  <g id="Putative">
    <rect data-gene="Putative" id="rect7-2" data-name="rect7" class="cls-10" x="229.8259" y="148.6638" width="47.9026" height="17.9818" rx="6.6" ry="6.6"/>
    <g id="text75" class="cls-7">
      <text class="cls-6" transform="translate(232.0975 161.8553)"><tspan x="0" y="0">Putative</tspan></text>
    </g>
  </g>
  <g>
    <rect data-gene="DUF1217" id="DUF1217" class="cls-12" x="224.3769" y="124.8484" width="58.8005" height="17.9818" rx="6.6" ry="6.6"/>
    <g id="text87" class="cls-7">
      <text class="cls-2" transform="translate(228.0987 138.0401)"><tspan x="0" y="0">DUF1217</tspan></text>
    </g>
  </g>
  <g>
    <rect data-gene="SwrD" id="SwrD" class="cls-10" x="232.9076" y="101.0331" width="41.7391" height="17.9818" rx="6.6" ry="6.6"/>
    <g id="text60-13" data-name="text60" class="cls-7">
      <text class="cls-6" transform="translate(239.1109 114.2244)"><tspan x="0" y="0">SwrD</tspan></text>
    </g>
  </g>
  <rect data-gene="FliD" id="FliD" class="cls-13" x="170.2564" y="6.0076" width="41.7391" height="17.9818" rx="6.6" ry="6.6"/>
  <g id="text60-14" data-name="text60">
    <text class="cls-2" transform="translate(180.462 19.199)"><tspan x="0" y="0">FliD</tspan></text>
  </g>
  <rect data-gene="FlgJ" id="FlgJ" class="cls-10" x="104.4378" y="169.9086" width="41.7391" height="17.9818" rx="6.6" ry="6.6"/>
  <g id="text60-15" data-name="text60" class="cls-7">
    <text class="cls-6" transform="translate(113.9724 183.1)"><tspan x="0" y="0">FlgJ</tspan></text>
  </g>
  <rect data-gene="FlgI" id="FlgI" class="cls-10" x="128.7" y="226.3856" width="25.2141" height="17.9818" rx="6.6" ry="6.6"/>
  <g id="text60-16" data-name="text60" class="cls-7">
    <text class="cls-6" transform="translate(131.3052 239.5769)"><tspan x="0" y="0">FlgI</tspan></text>
  </g>
  <path data-gene="FlgH" id="FlgH-2" data-name="FlgH" class="cls-10" d="M207.8056,194.1764c2.874-1.0904,10.4698,0,10.4698,0,5.7,0,10.7,3.1,12.4,7.6l-6.7,25c3.2,8.6-4.5,17.3-15.4,17.3,0,0-7.4347,2.3282-7.1323-9.9724.2111-8.5865.3916-32.505.3958-34.6385.0103-5.1899,3.0928-4.1986,5.9668-5.2891h0Z"/>
  <rect data-gene="FlgI" id="FlgI-2" data-name="FlgI" class="cls-10" x="201.3384" y="226.3856" width="25.2141" height="17.9818" rx="6.6" ry="6.6"/>
  <rect data-gene="MotB" id="MotB" class="cls-13" x="257.6812" y="261.0761" width="30" height="16.8" rx="6.4" ry="6.4"/>
  <g id="text64" class="cls-7">
    <text class="cls-2" transform="translate(258.6771 274.176)"><tspan x="0" y="0">MotB</tspan></text>
  </g>
  <rect data-gene="MotA" id="MotA" class="cls-13" x="261.6991" y="301.3324" width="30.7425" height="17.9818" rx="6.6" ry="6.6" transform="translate(-33.253 587.3937) rotate(-90)"/>
  <g id="text60-17" data-name="text60" class="cls-7">
    <text class="cls-2" transform="translate(281.2709 324.3276) rotate(-90)"><tspan x="0" y="0">Mot</tspan><tspan class="cls-19" x="20.0039" y="0">A</tspan></text>
  </g>
  <rect data-gene="FliL" id="FliL-2" data-name="FliL" class="cls-10" x="254.0868" y="277.5448" width="35.4734" height="17.9818" rx="6.6" ry="6.6"/>
  <g id="text60-18" data-name="text60" class="cls-7">
    <text class="cls-6" transform="translate(262.3724 290.7361)"><tspan x="0" y="0">Fli</tspan><tspan class="cls-29" x="12.6621" y="0">L</tspan></text>
  </g>
  <rect data-gene="MotB" id="MotB-2" data-name="MotB" class="cls-13" x="439.9134" y="259.0761" width="30" height="16.8" rx="6.4" ry="6.4"/>
  <g id="text64-2" data-name="text64" class="cls-7">
    <text class="cls-2" transform="translate(440.9094 272.176)"><tspan x="0" y="0">MotB</tspan></text>
  </g>
  <rect data-gene="MotA" id="MotA-2" data-name="MotA" class="cls-13" x="443.9312" y="299.3324" width="30.7425" height="17.9818" rx="6.6" ry="6.6" transform="translate(150.9792 767.6258) rotate(-90)"/>
  <g id="text60-19" data-name="text60" class="cls-7">
    <text class="cls-2" transform="translate(463.503 322.3276) rotate(-90)"><tspan x="0" y="0">Mot</tspan><tspan class="cls-19" x="20.0039" y="0">A</tspan></text>
  </g>
  <rect data-gene="FliL" id="FliL-3" data-name="FliL" class="cls-10" x="436.3189" y="275.5448" width="35.4734" height="17.9818" rx="6.6" ry="6.6"/>
  <g id="text60-20" data-name="text60" class="cls-7">
    <text class="cls-6" transform="translate(444.6047 288.7362)"><tspan x="0" y="0">Fli</tspan><tspan class="cls-29" x="12.6621" y="0">L</tspan></text>
  </g>
  <rect id="rect38" class="cls-24" x="198.8087" y="189.0579" width="155.351" height="135.5186"/>
  <rect id="rect101" class="cls-21" x="381.8418" y="189.091" width="155.2847" height="135.4854"/>
  <rect data-gene="MotB" id="MotB-3" data-name="MotB" class="cls-13" x="439.9134" y="433.024" width="30" height="16.8" rx="6.4" ry="6.4"/>
  <g id="text64-3" data-name="text64" class="cls-7">
    <text class="cls-2" transform="translate(440.9092 446.124)"><tspan x="0" y="0">MotB</tspan></text>
  </g>
  <rect data-gene="MotA" id="MotA-3" data-name="MotA" class="cls-13" x="443.9312" y="473.2804" width="30.7425" height="17.9818" rx="6.6" ry="6.6" transform="translate(-22.9688 941.5738) rotate(-90)"/>
  <g id="text60-21" data-name="text60" class="cls-7">
    <text class="cls-2" transform="translate(463.503 496.2759) rotate(-90)"><tspan x="0" y="0">Mot</tspan><tspan class="cls-19" x="20.0039" y="0">A</tspan></text>
  </g>
  <rect data-gene="FliL" id="FliL-4" data-name="FliL" class="cls-10" x="436.3189" y="449.4927" width="35.4734" height="17.9818" rx="6.6" ry="6.6"/>
  <g id="text60-22" data-name="text60" class="cls-7">
    <text class="cls-6" transform="translate(444.6045 462.6841)"><tspan x="0" y="0">Fli</tspan><tspan class="cls-29" x="12.6621" y="0">L</tspan></text>
  </g>
  <g><path data-gene="FlgH" id="FlgH-3" data-name="FlgH" class="cls-10" d="M390.9414,192.1764c2.874-1.0904,10.4698,0,10.4698,0,5.7,0,10.7,3.1,12.4,7.6l-6.7,25c3.2,8.6-4.5,17.3-15.4,17.3,0,0-7.4347,2.3282-7.1323-9.9724.2111-8.5865.3916-32.505.3958-34.6385.0103-5.1899,3.0928-4.1986,5.9668-5.2891h0Z"/>
    <rect data-gene="FlgI" id="FlgI-3" data-name="FlgI" class="cls-10" x="384.4742" y="224.3856" width="25.2141" height="17.9818" rx="6.6" ry="6.6"/>
  </g>
  <g><path data-gene="FlgH" id="FlgH-4" data-name="FlgH" class="cls-10" d="M390.9414,368.2387c2.874-1.0904,10.4698,0,10.4698,0,5.7,0,10.7,3.1,12.4,7.6l-6.7,25c3.2,8.6-4.5,17.3-15.4,17.3,0,0-7.4347,2.3282-7.1323-9.9724.2111-8.5865.3916-32.505.3958-34.6385.0103-5.1899,3.0928-4.1986,5.9668-5.2891h0Z"/>
    <rect data-gene="FlgI" id="FlgI-4" data-name="FlgI" class="cls-10" x="384.4742" y="400.4478" width="25.2141" height="17.9818" rx="6.6" ry="6.6"/>
  </g>
  <path data-gene="FlgP" id="FlgP-2" data-name="FlgP" class="cls-10" d="M509.9887,368.7945c-2.9057,0-5.299,2.1154-5.7305,4.8965-1.0622-1.2825-2.6678-2.0957-4.4707-2.0957h-9.7988c-2.9058,0-5.2991,2.1153-5.7305,4.8965-1.0622-1.2825-2.6678-2.0977-4.4707-2.0977h-9.7988c-2.9058,0-5.2991,2.1173-5.7305,4.8984-1.0622-1.2825-2.6678-2.0977-4.4707-2.0977h-9.7988c-2.9057,0-5.299,2.1154-5.7305,4.8965-1.0622-1.2825-2.6678-2.0957-4.4707-2.0957h-9.7988c-2.1611,0-4.0352,1.1721-5.0332,2.916-.3771-.0765-.7676-.1172-1.168-.1172h-9.7988c-3.2132,0-5.8008,2.5876-5.8008,5.8008v6.4004c0,3.2132,2.5876,5.7988,5.8008,5.7988h9.7988c2.1616,0,4.0354-1.1735,5.0332-2.918.3771.0765.7676.1191,1.168.1191h9.7988c2.9051,0,5.2982-2.1163,5.7305-4.8965,1.0622,1.2812,2.6688,2.0957,4.4707,2.0957h9.7988c2.9051,0,5.2982-2.1144,5.7305-4.8945,1.0622,1.2813,2.6688,2.0938,4.4707,2.0938h9.7988c2.9051,0,5.2983-2.1143,5.7305-4.8945,1.0622,1.2812,2.6688,2.0957,4.4707,2.0957h9.7988c2.9051,0,5.2982-2.1144,5.7305-4.8945,1.0622,1.2812,2.6688,2.0938,4.4707,2.0938h9.7988c3.2132,0,5.8008-2.5856,5.8008-5.7988v-6.4004c0-3.2132-2.5876-5.8008-5.8008-5.8008h-9.7988Z"/>
  <path data-gene="MotX,MotY" id="MotX_MotY-2" data-name="MotX/MotY" class="cls-14" d="M440.2127,432.4269c-9.6907-4.3545-18.8371-8.9508-28.0923-14.2729-3.811-2.2982-5.9887-7.3784-4.8998-11.1281h0c1.0888-3.7497,5.5531-6.5317,9.7996-5.8059,10.3441,1.6934,20.2526,3.8706,30.3788,6.5317,4.1376,1.2096,5.7709,8.1041,3.811,14.9987h0c-1.9599,6.8946-6.9686,11.37-10.8885,9.6766h-.1089Z"/>
  <rect data-gene="FlhE" id="FlhE" class="cls-12" x="300.3537" y="248.5715" width="41.7391" height="17.9818" rx="6.6" ry="6.6"/>
  <g id="text80-7" data-name="text80" class="cls-7">
    <text class="cls-2" transform="translate(308.9947 261.7631)"><tspan x="0" y="0">FlhE</tspan></text>
  </g>
  <rect data-gene="FlgQ" id="FlgQ" class="cls-12" x="483.9376" y="248.4713" width="41.7391" height="17.9818" rx="6.6" ry="6.6"/>
  <g id="text80-8" data-name="text80" class="cls-7">
    <text class="cls-2" transform="translate(491.9138 261.6629)"><tspan x="0" y="0">FlgQ</tspan></text>
  </g>
  <g>
    <rect data-gene="DUF327" id="DUF327" class="cls-12" x="293.2229" y="148.6638" width="46" height="17.9818" rx="6.6" ry="6.6"/>
    <g id="text80-9" data-name="text80" class="cls-7">
      <text class="cls-2" transform="translate(293.9896 161.8554)"><tspan x="0" y="0">DUF327</tspan></text>
    </g>
  </g>
  <path data-gene="SwrB" id="SwrB" class="cls-10" d="M43.0746,297.0808c-2.2769,0-4.1227,1.8458-4.1227,4.1227v21.1585H12.0584c-3.6451,0-6.6,2.9549-6.6,6.6v4.7818c0,3.6451,2.955,6.6,6.6,6.6h28.539c2.1469,0,4.0486-1.0297,5.2539-2.6171.822-.7537,1.3461-1.8265,1.3461-3.0297v-33.4935c0-2.2769-1.8458-4.1227-4.1228-4.1227Z"/>
  <g id="text79" class="cls-7">
    <text class="cls-6" transform="translate(11.993 334.8147)"><tspan x="0" y="0">SwrB</tspan></text>
  </g>
  <g>
    <rect data-gene="YviE" id="YviE" class="cls-12" x="297.1282" y="123.2894" width="39.0573" height="17.9818" rx="6.6" ry="6.6"/>
    <g id="text87-2" data-name="text87" class="cls-7">
      <text class="cls-2" transform="translate(304.6511 136.4811)"><tspan class="cls-19" x="0" y="0">Y</tspan><tspan x="7.3418" y="0">viE</tspan></text>
    </g>
  </g>
  <g>
    <rect data-gene="YvyF" id="YvyF" class="cls-12" x="297.1282" y="99.4741" width="37.5555" height="17.9818" rx="6.6" ry="6.6"/>
    <g id="text87-3" data-name="text87" class="cls-7">
      <text class="cls-2" transform="translate(303.0825 112.666) scale(.9615 1)"><tspan class="cls-27" x="0" y="0">Y</tspan><tspan x="7.3419" y="0">vyF</tspan></text>
    </g>
  </g>
  <g>
    <rect data-gene="FliB" id="FliB" class="cls-10" x="296.6943" y="53.4024" width="39.0573" height="17.9818" rx="6.6" ry="6.6"/>
    <g id="text87-4" data-name="text87">
      <text class="cls-6" transform="translate(305.8901 66.5941)"><tspan x="0" y="0">FliB</tspan></text>
    </g>
  </g>
  <rect id="rect135-3" data-name="rect135" class="cls-28" x="384.2525" y="123.0591" width="150.1739" height="24.2297"/>
  <rect id="rect103-2" data-name="rect103" class="cls-28" x="384.8159" y="52.359" width="150.2024" height="17.4"/>
  <rect id="rect104-2" data-name="rect104" class="cls-28" x="384.8159" y="18.859" width="149.6104" height="18.8"/>
  <g id="text122-2" data-name="text122">
    <text class="cls-6" transform="translate(454.056 388.2146)"><tspan x="0" y="0">Flg</tspan><tspan class="cls-26" x="16.6699" y="0">P</tspan></text>
  </g>
  <rect data-gene="FlcD" id="FlcD" class="cls-14" x="437.8998" y="94.6645" width="27.5" height="14.631" rx="6.4" ry="6.4"/>
  <g id="text128-2" data-name="text128" class="cls-7">
    <text class="cls-2" transform="translate(439.6327 105.9649)"><tspan x="0" y="0">FlcD</tspan></text>
  </g>
  <rect data-gene="FlcA" id="FlcA" class="cls-14" x="495.2184" y="95.5589" width="27.5" height="16.8" rx="6.4" ry="6.4"/>
  <g id="text130-2" data-name="text130" class="cls-7">
    <text class="cls-2" transform="translate(496.9572 107.8589)"><tspan x="0" y="0">Flc</tspan><tspan class="cls-19" x="15.9961" y="0">A</tspan></text>
  </g>
  <rect id="rect134-2" data-name="rect134" class="cls-20" x="381.6835" y="13.9598" width="155.2381" height="135.4854"/>
  <g id="text116-2" data-name="text116" class="cls-7">
    <text class="cls-8" transform="translate(461.0497 10.2949)"><tspan x="0" y="0">B. burgdorferi</tspan></text>
  </g>
  <rect data-gene="MotB" id="MotB-4" data-name="MotB" class="cls-13" x="464.6438" y="84.9882" width="30" height="16.8" rx="6.4" ry="6.4"/>
  <g id="text64-4" data-name="text64" class="cls-7">
    <text class="cls-2" transform="translate(465.6397 98.0881)"><tspan x="0" y="0">MotB</tspan></text>
  </g>
  <rect data-gene="MotA" id="MotA-4" data-name="MotA" class="cls-13" x="468.6617" y="125.2445" width="30.7425" height="17.9818" rx="6.6" ry="6.6" transform="translate(349.7975 618.2684) rotate(-90)"/>
  <g id="text60-23" data-name="text60" class="cls-7">
    <text class="cls-2" transform="translate(488.2335 148.2397) rotate(-90)"><tspan x="0" y="0">Mot</tspan><tspan class="cls-19" x="20.0039" y="0">A</tspan></text>
  </g>
  <g id="text60-24" data-name="text60" class="cls-7">
    <text class="cls-6" transform="translate(469.335 114.6483)"><tspan x="0" y="0">Fli</tspan><tspan class="cls-29" x="12.6621" y="0">L</tspan></text>
  </g>
  <g>
    <path data-gene="FlgH" id="FlgH-5" data-name="FlgH" class="cls-10" d="M390.6719,20.2028c2.874-1.0904,10.4698,0,10.4698,0,5.7,0,10.7,3.1,12.4,7.6l-6.7,25c3.2,8.6-4.5,17.3-15.4,17.3,0,0-7.4347,2.3282-7.1323-9.9724.2111-8.5865.3916-32.505.3958-34.6385.0103-5.1899,3.0928-4.1986,5.9668-5.2891h0Z"/>
    <rect data-gene="FlgI" id="FlgI-5" data-name="FlgI" class="cls-10" x="384.2046" y="52.4119" width="25.2141" height="17.9818" rx="6.6" ry="6.6"/>
  </g>
  <rect data-gene="FlcB" id="FlcB" class="cls-14" x="395.6699" y="88.6982" width="27.5" height="13.0899" rx="6.4" ry="6.4"/>
  <g id="text128-3" data-name="text128" class="cls-7">
    <text class="cls-2" transform="translate(397.4042 99.2881)"><tspan x="0" y="0">FlcB</tspan></text>
  </g>
  <rect data-gene="FlcC" id="rect127" class="cls-14" x="413.9423" y="101.7115" width="27.5" height="13.9402" rx="6.4" ry="6.4"/>
  <g id="FlcC" class="cls-7">
    <text class="cls-2" transform="translate(415.6786 113.01)"><tspan x="0" y="0">FlcC</tspan></text>
  </g>
  <g id="text34" class="cls-7">
    <text class="cls-2" transform="translate(70.7999 353.0764)"><tspan x="0" y="0">FliM</tspan></text>
  </g>
  <g id="text35" class="cls-7">
    <text class="cls-2" transform="translate(70.8 370.1764)"><tspan x="0" y="0">FliN</tspan></text>
  </g>
  <rect data-gene="FliM" id="FliM-2" data-name="FliM" class="cls-13" x="260.0857" y="339.9765" width="25.4757" height="16.8" rx="6.4" ry="6.4"/>
  <rect data-gene="FliN" id="FliN-2" data-name="FliN" class="cls-13" x="260.0857" y="357.3765" width="25.4757" height="16.8" rx="6.4" ry="6.4"/>
  <rect data-gene="FlaG" id="FlaG" class="cls-10" x="279.4842" y="339.0529" width="41.7391" height="17.9818" rx="6.6" ry="6.6"/>
  <g id="text60-25" data-name="text60" class="cls-7">
    <text class="cls-6" transform="translate(287.3517 352.2444)"><tspan x="0" y="0">FlaG</tspan></text>
  </g>
  <path id="path32-2" data-name="path32" class="cls-23" d="M267.6928,14.9984h57.3739"/>
  <g id="FlaY">
    <rect data-gene="FlaY" id="rect81" class="cls-14" x="292.5217" y="6.2432" width="47.4025" height="17.5103" rx="6.6" ry="6.6"/>
    <g id="text82" class="cls-7">
      <text class="cls-2" transform="translate(303.9294 19.1989)"><tspan x="0" y="0">Fla</tspan><tspan class="cls-26" x="16.6699" y="0">Y</tspan></text>
    </g>
  </g>
  <rect data-gene="Transglycosylase" id="rect7-3" data-name="rect7" class="cls-10" x="4.2968" y="169.9086" width="96.8598" height="17.9818" rx="6.6" ry="6.6"/>
  <g id="text60-26" data-name="text60" class="cls-7">
    <text class="cls-6" transform="translate(6.5989 183.1)"><tspan class="cls-29" x="0" y="0">T</tspan><tspan x="6.8848" y="0">ransglycosylase</tspan></text>
  </g>
  <g id="FlgA">
    <rect data-gene="FlgA" id="rect7-4" data-name="rect7" class="cls-10" x="112.1751" y="246.9633" width="41.7391" height="17.9818" rx="6.6" ry="6.6"/>
    <g id="text60-27" data-name="text60" class="cls-7">
      <text class="cls-6" transform="translate(120.6964 260.1547)"><tspan x="0" y="0">Flg</tspan><tspan class="cls-19" x="16.6699" y="0">A</tspan></text>
    </g>
    <rect data-gene="FlgA" id="rect7-5" data-name="rect7" class="cls-10" x="112.1751" y="246.9633" width="41.7391" height="17.9818" rx="6.6" ry="6.6"/>
    <g id="text60-28" data-name="text60" class="cls-7">
      <text class="cls-6" transform="translate(120.6964 260.1547)"><tspan x="0" y="0">Flg</tspan><tspan class="cls-19" x="16.6699" y="0">A</tspan></text>
    </g>
    <rect data-gene="FlgA" id="rect7-6" data-name="rect7" class="cls-10" x="112.1751" y="246.9633" width="41.7391" height="17.9818" rx="6.6" ry="6.6"/>
    <g id="text60-29" data-name="text60" class="cls-7">
      <text class="cls-6" transform="translate(120.6964 260.1547)"><tspan x="0" y="0">Flg</tspan><tspan class="cls-19" x="16.6699" y="0">A</tspan></text>
    </g>
    <rect data-gene="FlgA" id="rect7-7" data-name="rect7" class="cls-10" x="112.1751" y="246.9633" width="41.7391" height="17.9818" rx="6.6" ry="6.6"/>
    <g id="text60-30" data-name="text60" class="cls-7">
      <text class="cls-6" transform="translate(120.6964 260.1547)"><tspan x="0" y="0">Flg</tspan><tspan class="cls-19" x="16.6699" y="0">A</tspan></text>
    </g>
    <rect data-gene="FlgA" id="rect7-8" data-name="rect7" class="cls-10" x="112.1751" y="246.9633" width="41.7391" height="17.9818" rx="6.6" ry="6.6"/>
    <g id="text60-31" data-name="text60" class="cls-7">
      <text class="cls-6" transform="translate(120.6964 260.1547)"><tspan x="0" y="0">Flg</tspan><tspan class="cls-19" x="16.6699" y="0">A</tspan></text>
    </g>
  </g>
  <rect data-gene="FapA" id="FapA" class="cls-10" x="311.1082" y="394.1135" width="41.7391" height="17.9818" rx="6.6" ry="6.6"/>
  <g id="text60-32" data-name="text60" class="cls-7">
    <text class="cls-6" transform="translate(317.6369 407.3049)"><tspan x="0" y="0">Fap</tspan><tspan class="cls-19" x="20.6777" y="0">A</tspan></text>
  </g>
  <g id="SwrA">
    <rect data-gene="SwrA" id="rect7-9" data-name="rect7" class="cls-12" x="311.1082" y="415.8986" width="41.7391" height="17.9818" rx="6.6" ry="6.6"/>
    <g id="text80-10" data-name="text80" class="cls-7">
      <text class="cls-2" transform="translate(317.7512 429.0902)"><tspan x="0" y="0">Swr</tspan><tspan class="cls-19" x="20.666" y="0">A</tspan></text>
    </g>
  </g>
  <g id="MotE-2" data-name="MotE">
    <rect data-gene="MotE" id="rect122" class="cls-10" x="384.4028" y="102.3295" width="29.0363" height="16.8" rx="6.4" ry="6.4"/>
    <g id="text127-2" data-name="text127" class="cls-7">
      <text class="cls-6" transform="translate(384.9167 114.3294)"><tspan x="0" y="0">MotE</tspan></text>
    </g>
  </g>
  <g>
    <path class="cls-18" d="M181.2792,458.2712c10.2823,14.3934-5.8254,27.1907-12.9835,31.8946"/>
    <polygon class="cls-1" points="167.5644 487.6263 165.2336 492.0334 170.2156 491.8491 167.5644 487.6263"/>
  </g>
  <g>
    <path class="cls-18" d="M208.7754,485.1244c-1.4563,17.921-26.4721,17.0258-35.9854,15.9875"/>
    <polygon class="cls-1" points="173.8344 498.6862 169.2383 500.6178 173.2086 503.6329 173.8344 498.6862"/>
  </g>
  <g>
    <path class="cls-18" d="M120.9769,451.9948c-.0505,3.9376.2731,13.5511,5.4388,23.1863,2.5098,4.6813,5.425,7.9922,7.8618,10.2389"/>
    <polygon class="cls-1" points="132.137 486.7812 137.0344 487.7143 135.3945 483.0063 132.137 486.7812"/>
  </g>
  <g>
    <path class="cls-17" d="M235.1927,447.0524c-8.5264.0947-25.1293-1.0087-41.4388-11.3957-4.323-2.7531-7.9436-5.7244-10.9417-8.5953"/>
    <polygon class="cls-3" points="185.1049 425.7991 180.2862 424.5201 181.5871 429.3328 185.1049 425.7991"/>
  </g>
  <g>
    <path class="cls-18" d="M322.5682,472.0796c1.5234.8651,5.2865,3.2633,7,7.5886,1.9801,4.9982.0344,9.5682-1.776,12.3637"/>
    <polygon class="cls-1" points="326.1948 489.8992 325.5682 494.8452 330.165 492.9156 326.1948 489.8992"/>
  </g>
  <g id="text29" class="cls-7">
    <text class="cls-2" transform="translate(169.8458 272.6954) rotate(-19.0668)"><tspan x="0" y="0">FliE</tspan></text>
  </g>
  <g>
    <rect data-gene="FljA" id="FljA" class="cls-12" x="296.6943" y="29.5871" width="39.0573" height="17.9818" rx="6.6" ry="6.6"/>
    <g id="text87-5" data-name="text87" class="cls-7">
      <text class="cls-2" transform="translate(305.8901 42.7787)"><tspan x="0" y="0">Flj</tspan><tspan class="cls-19" x="12.6621" y="0">A</tspan></text>
    </g>
  </g>
  <rect data-gene="YdiV" id="YdiV" class="cls-12" x="77.3456" y="468.9591" width="39.0573" height="17.9818" rx="6.6" ry="6.6"/>
  <g id="text87-6" data-name="text87" class="cls-7">
    <text class="cls-2" transform="translate(84.2005 482.1508)"><tspan x="0" y="0">YdiV</tspan></text>
  </g>
  <g>
    <rect data-gene="MotK" id="MotK" class="cls-12" x=".6708" y="270.0461" width="41.7391" height="18.0145" rx="6.6" ry="6.6"/>
    <g id="text80-11" data-name="text80" class="cls-7">
      <text class="cls-2" transform="translate(7.6448 283.2705)"><tspan x="0" y="0">MotK</tspan></text>
    </g>
  </g>
  <g>
    <rect data-gene="MotC" id="MotC" class="cls-12" x="44.2587" y="270.0625" width="41.7391" height="17.9818" rx="6.6" ry="6.6"/>
    <g id="text80-12" data-name="text80" class="cls-7">
      <text class="cls-2" transform="translate(50.9016 283.2542)"><tspan x="0" y="0">MotC</tspan></text>
    </g>
  </g>
  <rect data-gene="FliZ" id="FliZ" class="cls-12" x="78.0448" y="489.7268" width="39.0573" height="17.9818" rx="6.6" ry="6.6"/>
  <g id="text87-7" data-name="text87" class="cls-7">
    <text class="cls-2" transform="translate(87.5774 502.9185)"><tspan x="0" y="0">FliZ</tspan></text>
  </g>
  <g>
    <rect data-gene="FlgX" id="FlgX" class="cls-12" x="87.8465" y="270.0625" width="41.7391" height="17.9818" rx="6.6" ry="6.6"/>
    <g id="text80-13" data-name="text80" class="cls-7">
      <text class="cls-2" transform="translate(96.4875 283.2542)"><tspan x="0" y="0">FlgX</tspan></text>
    </g>
  </g>
</svg>
